<mxfile host="app.diagrams.net" agent="Mozilla/5.0 (Macintosh; Intel Mac OS X 10_15_7) AppleWebKit/537.36 (KHTML, like Gecko) Chrome/126.0.0.0 Safari/537.36" version="24.7.7">
  <diagram name="第 1 页" id="vVnCSZ-BzBFA-lXy8-SQ">
    <mxGraphModel dx="1242" dy="749" grid="1" gridSize="10" guides="1" tooltips="1" connect="1" arrows="1" fold="1" page="1" pageScale="1" pageWidth="1654" pageHeight="1169" math="0" shadow="0">
      <root>
        <mxCell id="0" />
        <mxCell id="1" parent="0" />
        <mxCell id="vozOO3jPgxkh5Ig8vPFZ-1" value="blockbook" style="rounded=0;whiteSpace=wrap;html=1;fillColor=#dae8fc;strokeColor=#6c8ebf;shadow=1;fontFamily=Tahoma;" vertex="1" parent="1">
          <mxGeometry x="320" y="140" width="120" height="60" as="geometry" />
        </mxCell>
        <mxCell id="vozOO3jPgxkh5Ig8vPFZ-2" value="eth" style="rounded=0;whiteSpace=wrap;html=1;fillColor=#dae8fc;strokeColor=#6c8ebf;shadow=1;fontFamily=Tahoma;" vertex="1" parent="1">
          <mxGeometry x="320" y="250" width="120" height="60" as="geometry" />
        </mxCell>
        <mxCell id="vozOO3jPgxkh5Ig8vPFZ-3" value="solana&lt;span style=&quot;color: rgba(0, 0, 0, 0); font-family: monospace; font-size: 0px; text-align: start; text-wrap: nowrap;&quot;&gt;%3CmxGraphModel%3E%3Croot%3E%3CmxCell%20id%3D%220%22%2F%3E%3CmxCell%20id%3D%221%22%20parent%3D%220%22%2F%3E%3CmxCell%20id%3D%222%22%20value%3D%22%22%20style%3D%22shape%3Dimage%3BverticalLabelPosition%3Dbottom%3BlabelBackgroundColor%3Ddefault%3BverticalAlign%3Dtop%3Baspect%3Dfixed%3BimageAspect%3D0%3Bimage%3Dhttps%3A%2F%2Febpf.io%2Fstatic%2Flogo-black-98b7a1413b4a74ed961d292cf83da82e.svg%3B%22%20vertex%3D%221%22%20parent%3D%221%22%3E%3CmxGeometry%20x%3D%22810%22%20y%3D%22566%22%20width%3D%22106%22%20height%3D%2237%22%20as%3D%22geometry%22%2F%3E%3C%2FmxCell%3E%3C%2Froot%3E%3C%2FmxGraphModel%3E&lt;/span&gt;" style="rounded=0;whiteSpace=wrap;html=1;fillColor=#dae8fc;strokeColor=#6c8ebf;shadow=1;fontFamily=Tahoma;" vertex="1" parent="1">
          <mxGeometry x="320" y="360" width="120" height="60" as="geometry" />
        </mxCell>
        <mxCell id="vozOO3jPgxkh5Ig8vPFZ-5" style="edgeStyle=orthogonalEdgeStyle;rounded=0;orthogonalLoop=1;jettySize=auto;html=1;exitX=0.5;exitY=0;exitDx=0;exitDy=0;entryX=1;entryY=0.5;entryDx=0;entryDy=0;" edge="1" parent="1" source="vozOO3jPgxkh5Ig8vPFZ-4" target="vozOO3jPgxkh5Ig8vPFZ-1">
          <mxGeometry relative="1" as="geometry" />
        </mxCell>
        <mxCell id="vozOO3jPgxkh5Ig8vPFZ-6" style="edgeStyle=orthogonalEdgeStyle;rounded=0;orthogonalLoop=1;jettySize=auto;html=1;exitX=0;exitY=0.5;exitDx=0;exitDy=0;entryX=1;entryY=0.5;entryDx=0;entryDy=0;" edge="1" parent="1" source="vozOO3jPgxkh5Ig8vPFZ-4" target="vozOO3jPgxkh5Ig8vPFZ-2">
          <mxGeometry relative="1" as="geometry" />
        </mxCell>
        <mxCell id="vozOO3jPgxkh5Ig8vPFZ-7" style="edgeStyle=orthogonalEdgeStyle;rounded=0;orthogonalLoop=1;jettySize=auto;html=1;exitX=0.5;exitY=1;exitDx=0;exitDy=0;entryX=1;entryY=0.5;entryDx=0;entryDy=0;" edge="1" parent="1" source="vozOO3jPgxkh5Ig8vPFZ-4" target="vozOO3jPgxkh5Ig8vPFZ-3">
          <mxGeometry relative="1" as="geometry" />
        </mxCell>
        <mxCell id="vozOO3jPgxkh5Ig8vPFZ-4" value="" style="shape=image;verticalLabelPosition=bottom;labelBackgroundColor=default;verticalAlign=top;aspect=fixed;imageAspect=0;image=https://ebpf.io/static/logo-black-98b7a1413b4a74ed961d292cf83da82e.svg;" vertex="1" parent="1">
          <mxGeometry x="620" y="261.5" width="106" height="37" as="geometry" />
        </mxCell>
        <mxCell id="vozOO3jPgxkh5Ig8vPFZ-8" value="......." style="text;html=1;align=center;verticalAlign=middle;resizable=0;points=[];autosize=1;strokeColor=none;fillColor=none;fontSize=28;" vertex="1" parent="1">
          <mxGeometry x="340" y="440" width="80" height="50" as="geometry" />
        </mxCell>
        <mxCell id="vozOO3jPgxkh5Ig8vPFZ-9" value="......." style="text;html=1;align=center;verticalAlign=middle;resizable=0;points=[];autosize=1;strokeColor=none;fillColor=none;fontSize=28;" vertex="1" parent="1">
          <mxGeometry x="340" y="480" width="80" height="50" as="geometry" />
        </mxCell>
        <mxCell id="vozOO3jPgxkh5Ig8vPFZ-10" style="edgeStyle=orthogonalEdgeStyle;rounded=0;orthogonalLoop=1;jettySize=auto;html=1;exitX=0.5;exitY=1;exitDx=0;exitDy=0;entryX=1;entryY=0.62;entryDx=0;entryDy=0;entryPerimeter=0;" edge="1" parent="1" source="vozOO3jPgxkh5Ig8vPFZ-4" target="vozOO3jPgxkh5Ig8vPFZ-9">
          <mxGeometry relative="1" as="geometry" />
        </mxCell>
        <mxCell id="vozOO3jPgxkh5Ig8vPFZ-12" value="一份代码配置&lt;div style=&quot;font-size: 14px;&quot;&gt;读取不同链的数据&lt;/div&gt;" style="text;html=1;align=center;verticalAlign=middle;resizable=0;points=[];autosize=1;strokeColor=none;fillColor=none;fontSize=14;" vertex="1" parent="1">
          <mxGeometry x="720" y="256.5" width="140" height="50" as="geometry" />
        </mxCell>
      </root>
    </mxGraphModel>
  </diagram>
</mxfile>
